# xmcd
# 
# Track frame offsets:
#     150
#     14508
#     31447
#     48241
#     68276
#     84914
#     104178
#     119795
#     137192
#     152529
#     169118
#     200716
#     217500
#     232298
#     264388
# 
# Disc length: 4712
# 
# Revision: 1
# Processed by: cddbd v1.5.2PL0 Copyright (c) Steve Scherf et al.
# Submitted via: fre:ac v1.0.31
# 
DISCID=d112660f
DTITLE=Jimmy Buffett - Take The Weather With You
DYEAR=2006
DGENRE=Rock/Pop
TTITLE0=Bama Breeze
TTITLE1=Party At The End Of The World
TTITLE2=Weather With You
TTITLE3=Everybody's On The Phone
TTITLE4=Whoop De Doo
TTITLE5=Nothin' But A Breeze
TTITLE6=Cinco De Mayo In Memphis
TTITLE7=Reggabilly Hill
TTITLE8=Elvis Presley Blues
TTITLE9=Hula Girl At Heart
TTITLE10=Wheel Inside The Wheel
TTITLE11=Silver Wings
TTITLE12=Breathe In, Breathe Out, Move On
TTITLE13=Duke's On Sunday
TTITLE14=DVD
EXTD=
EXTT0=
EXTT1=
EXTT2=
EXTT3=
EXTT4=
EXTT5=
EXTT6=
EXTT7=
EXTT8=
EXTT9=
EXTT10=
EXTT11=
EXTT12=
EXTT13=
EXTT14=
PLAYORDER=
